<svg xmlns="http://www.w3.org/2000/svg" viewBox="0 0 2711.14 1835.58"><title>logo june6</title><path d="M2628.22,969.73h-1143V594h1143Zm-1022.39-41c35.14-1,64.23-11.58,85.24-38.33,35.41-45.08,18.39-102.28-36.77-122.36-23.36-8.5-48-13.43-71.6-21.28-11.78-3.91-22-11.23-22.3-26-.35-15.15,7.29-25.35,20.42-31.39a64.38,64.38,0,0,1,19.08-5.14c22-2.61,41.61,2.43,58.67,17.53,9.92,8.78,21.75,9.24,31.66-.17,10.35-9.83,8.41-21-.12-31.23-4.23-5.07-8.78-10.16-14.08-14-26-18.93-55.4-25.3-86.82-19.94-44.43,7.59-74.1,37.78-77.51,77.3-3.22,37.29,19.51,66.63,64.56,81.56,19.41,6.44,39.58,10.53,59.18,16.45,14.29,4.31,25.06,13.09,25.09,29.4s-10.08,26.71-24.11,32.88a68.75,68.75,0,0,1-22.46,5.33c-26.12,1.82-47.9-6.52-63.61-28.64-6.72-9.46-16.11-17.62-28.07-12.19-7,3.18-15.58,11.56-16.15,18.23-.74,8.83,3.86,19.53,9.29,27.21C1537.75,915.47,1570.49,926.89,1605.83,928.71Zm842-86.84c44.92,0,88.12.06,131.31,0,23.8-.05,31.84-9.39,28.88-33.14-7.18-57.56-55.56-97.34-115.21-94.74-53.93,2.36-97.34,47.24-100.11,103.51-2.68,54.41,39.32,103.65,95,110.16,28.45,3.32,56-1.06,77.88-21,6.14-5.61,9.67-17.45,9-26-.47-6.22-9.18-15.66-15.35-16.64-8-1.28-18,2.9-25.52,7.39C2501,890.89,2460.12,878.42,2447.84,841.87Zm-659.78,0c42.62,0,83.74-1.12,124.76.33,36.78,1.31,39-15,33.48-42.14-12.66-62.82-75.3-99.68-137-81.85-60.15,17.36-91.72,82.24-69.16,142.12,24.15,64.08,112,90,163.66,48.41,11.11-8.93,16.8-19.28,9.8-33.24-7.54-15-20.8-16.67-39.28-5.14C1840.55,891.38,1799.44,878.72,1788.06,841.87ZM1977,853.56l1,.05c0,14.44-.12,28.88,0,43.31.2,18.57,9.21,29,24.72,29,14.88,0,22.4-9.43,22.74-28.38.52-28.27-.67-56.71,2-84.77,3.26-33.85,26.28-53.34,55.78-51.18,28.29,2.06,48.45,26.12,48.85,58.93.32,26.09-.17,52.2.19,78.29.24,17.15,10,27.16,25,26.93,14.25-.22,23-9.72,23.29-26.77.4-28.31.84-56.66-.05-85-1.66-53-40.27-95.52-89.37-99.74-56.13-4.82-100.06,27.29-110.75,83C1976.87,815.57,1978,834.77,1977,853.56Zm315.65-143.1-1.11,3.44c-2.78,0-5.56-.08-8.33,0-34.91,1.22-61.38,20.39-67.53,48.86-6.36,29.41,7.55,51.7,43.22,67.88,14.63,6.63,30.34,11.06,44.49,18.52,6.3,3.32,9.94,11.66,14.79,17.72-6.92,4.88-13.26,12.43-20.88,14.08-17.36,3.76-32.37-3.39-45.53-15.19-14.37-12.9-29-14.21-38.66-4.48-8.8,8.87-7.35,23.63,4.17,37.66a59,59,0,0,0,12,11.37c24.16,16.46,51.18,21.79,79.49,16.32,34.44-6.66,55.66-29.69,57.93-59.94,2.06-27.54-14.09-48.55-48.27-62-11.87-4.65-24.67-7.24-36-12.89-7.43-3.71-18.36-11.34-18.25-17,.26-12.94,13-15.56,23.91-14A169.94,169.94,0,0,1,2326,770.4c14.6,5.75,28.21,1.43,31.6-12.83s-4-25-15.34-30.32C2326.5,719.89,2309.22,715.89,2292.6,710.46Z" style="fill:#dbaa3b"/><path d="M2483.55,1391c-17.38-9.64-34.52-19.72-52.17-28.83-88.87-45.84-183.7-71.5-282.72-82.73-112.76-12.8-225-7.06-337.24,7.72-161.71,21.31-318.28,65.09-475.6,106.16-123.86,32.34-248.2,63.37-373.43,89.8A1121.65,1121.65,0,0,1,617.55,1502c-124.11-12.47-238.89-50.23-335.73-131.73-26.91-22.65-50-49.77-74.91-74.85l4-4.86c19.61,10.84,39.08,22,58.86,32.48,143.81,76.54,297.1,99.5,458,83,146.48-15,285.42-58.49,423-107.82,110.62-39.66,220.27-82.2,331.81-119.08a1284.42,1284.42,0,0,1,370.92-64.64c155-4.09,302.43,24.25,439.65,98.6,73,39.54,132.79,94.3,183.18,159.77,3.67,4.76,6.49,10.17,9.7,15.28Z" style="fill:#ec363a"/><path d="M1340,273c-162.29-95.37-331.22-121.63-508.46-67.09-133.18,41-242.83,118-323.32,233.45-153.82,220.61-161.5,526.28,39.09,766.16-144-89-291.92-287.29-277.52-554C283.45,398.5,470.69,165.32,712.54,96.67,969.65,23.69,1215.48,127.8,1340,273Z" style="fill:#ec363a"/><path d="M565.35,1721.85c41.47-1.91,82.95-3.48,124.39-5.81,92-5.18,181.17-25.09,269.2-51.52,138.55-41.59,271.19-98.39,404.09-154.66,107.33-45.43,214.55-91.45,327-123.24a1470,1470,0,0,1,358-55.15,1013.92,1013.92,0,0,1,303.05,36.91,17.87,17.87,0,0,1,10.87,7.47c-38.59,0-77.25-1.55-115.75.29-119.09,5.69-236.38,23.51-350.58,58.49-142.53,43.65-278.11,105.37-415.63,162-120.66,49.67-241.93,97.51-368.73,129.8-97.33,24.79-196,39.81-296.55,38.23-80.82-1.27-160.63-11.3-238.19-35.38-4.11-1.28-8.06-3.07-12.08-4.62Z" style="fill:#dbaa3b"/><path d="M814.57,1329c-197.73,57-460.53-6.21-629.81-197.79C6.59,929.59-23.31,636.48,95.67,414.06,201.49,216.24,367.08,101.62,589.6,70.82,435.27,122,311.76,213.57,226.54,353.22c-85,139.25-114.74,290.48-85.61,451.18C170,964.57,250.74,1095.14,379.11,1195,506.87,1294.33,653.16,1336.75,814.57,1329Z" style="fill:#dbaa3b"/><path d="M555,595V700.25h31.87c30.56,0,61.12-.33,91.67.14,21.66.34,35.08,13.77,35.18,33.8s-13.05,31.93-36,32c-35,.19-70,0-105,.09-5.44,0-10.87.46-17.72.78-.31,6.75-.79,12.64-.8,18.53-.08,31.66.31,63.34-.19,95-.29,17.88-13,30.37-30.25,31.48s-31.43-9.71-34.64-26.82a99.76,99.76,0,0,1-1.43-18.2q-.14-146.67,0-293.34c0-35.61,9.67-45,45.65-45.06q91.66,0,183.34,0c23.74,0,37.16,11.94,37.31,32.75.15,20.46-13.5,33.29-37.11,33.46-47.78.34-95.56.1-143.34.1Z" style="fill:#ec363a"/><path d="M1407.13,714.39c0-25.23-.46-47.4.16-69.53.42-15,10.09-24.39,23.66-25,12.84-.61,25.67,9.17,25.67,23.21,0,61.06,1.66,122.33-2.75,183.12-3.49,48-51,87.29-98,89C1302.33,917,1256,883.36,1244,834c-10.79-44.32,1.59-81.74,36-110.43,34.67-28.9,74-33,115.32-14.27C1398.24,710.65,1401.18,711.84,1407.13,714.39Zm-116.07,92.49c0,32.86,25.37,58.53,57.62,58.23a58.58,58.58,0,0,0,58.17-58.44c.05-31.62-26.79-58.4-58.38-58.26C1316.09,748.55,1291.09,774,1291.06,806.88Z" style="fill:#ec363a"/><path d="M878.48,915.06c-59.94.17-108.63-47.66-108.84-106.92-.22-60.44,48.48-110,107.94-109.95C936.84,698.28,987,748.84,986.43,808,985.91,866,936.58,914.9,878.48,915.06Zm56.38-108.24c-.1-33.43-24.62-58.44-57.28-58.44-32,0-57.63,25.92-57.73,58.4s25,58,57.59,58.35C909.66,865.43,935,839.75,934.86,806.82Z" style="fill:#ec363a"/><path d="M1112,915.11c-58.32-.18-108.55-50.9-107.87-108.93.68-58.43,51-108.21,109.2-108,59.31.23,108.08,49.29,107.78,108.42C1220.83,867.66,1172.92,915.29,1112,915.11ZM1170.46,807c.09-33.23-24.44-58.38-57.13-58.58-31.84-.2-58.14,26.11-58.15,58.18,0,32.55,25.22,58.14,57.71,58.51S1170.37,840.17,1170.46,807Z" style="fill:#ec363a"/><path d="M2447,801.32c1-21,28.3-39.16,53.12-39.8,25.59-.66,55,16.8,57,39.8Z" style="fill:#dbaa3b"/><path d="M1896.91,801.93h-109.1c1.71-20.72,21.63-37.39,47.2-40.19C1859.89,759,1893.22,774.41,1896.91,801.93Z" style="fill:#dbaa3b"/><path d="M2600.59,574.53h-9.18v-55H2573v-9.26h46.15v9.26h-18.53Z" style="fill:#231f20"/><path d="M2648.75,574.62l-14-51.29v51.29h-9.18V510.31h15.14l13.12,50.92,13.58-50.83h15.14v64.22h-9.18V523.33L2659,574.62Z" style="fill:#231f20"/><path d="M1943.34,1033.49H1968v-27.07h9.54V1073H1968V1043.5h-24.68v29.64h-9.53v-66.72h9.53Z" style="fill:#231f20"/><path d="M1997.66,1073.14v-66.72h36.22v9.44H2007.2V1034h23.73v9.72H2007.2v19.63h26.4v9.82Z" style="fill:#231f20"/><path d="M2083.73,1056.65H2062l-5,16.49h-9.72l20.11-66.72h8.86l22.59,66.72h-9.72Zm-3.05-9.25-8.67-29.26-7.82,29.26Z" style="fill:#231f20"/><path d="M2124.71,1006.42v56.81H2146v9.91h-30.79v-66.72Z" style="fill:#231f20"/><path d="M2174,1073.14h-9.53v-57.09H2145.3v-9.63h47.94v9.63H2174Z" style="fill:#231f20"/><path d="M2217.16,1033.49h24.69v-27.07h9.53V1073h-9.53V1043.5h-24.69v29.64h-9.53v-66.72h9.53Z" style="fill:#231f20"/><path d="M2299.32,1073.14v-66.72h36.31v9.63h-26.78v18.11h22.21v9.62h-22.21v29.36Z" style="fill:#231f20"/><path d="M2350,1039.3a33.22,33.22,0,0,1,2.81-13.58,35.88,35.88,0,0,1,7.58-11.05,35.7,35.7,0,0,1,49.94,0,35.71,35.71,0,0,1,7.58,11.05,33.22,33.22,0,0,1,2.81,13.58,34.87,34.87,0,0,1-2.76,13.82,36,36,0,0,1-18.78,19,33.49,33.49,0,0,1-13.63,2.81,34.43,34.43,0,0,1-13.82-2.81,35.86,35.86,0,0,1-11.29-7.68,36.81,36.81,0,0,1-7.63-11.34A34.39,34.39,0,0,1,2350,1039.3Zm11.06.86a23.45,23.45,0,0,0,1.9,9.44,24.3,24.3,0,0,0,5.25,7.67,25.09,25.09,0,0,0,7.72,5.19,24.14,24.14,0,0,0,18.82,0,25.08,25.08,0,0,0,7.77-5.19,24.27,24.27,0,0,0,5.24-7.67,23.46,23.46,0,0,0,1.91-9.44,25.12,25.12,0,0,0-1.91-9.67,26.71,26.71,0,0,0-5.15-8.1,25.18,25.18,0,0,0-7.62-5.58,21.35,21.35,0,0,0-9.34-2.1,22.15,22.15,0,0,0-9.53,2.1,26.07,26.07,0,0,0-7.82,5.58,26.53,26.53,0,0,0-5.29,8.1A24.61,24.61,0,0,0,2361.08,1040.16Z" style="fill:#231f20"/><path d="M2435.13,1039.3a33.07,33.07,0,0,1,2.82-13.58,35.68,35.68,0,0,1,7.57-11.05,35.72,35.72,0,0,1,49.95,0,35.85,35.85,0,0,1,7.57,11.05,33.06,33.06,0,0,1,2.81,13.58,34.87,34.87,0,0,1-2.76,13.82,36,36,0,0,1-18.78,19,33.49,33.49,0,0,1-13.63,2.81,34.38,34.38,0,0,1-13.81-2.81,35.79,35.79,0,0,1-11.3-7.68,36.61,36.61,0,0,1-7.62-11.34A34.23,34.23,0,0,1,2435.13,1039.3Zm11.06.86a23.29,23.29,0,0,0,1.91,9.44,24.1,24.1,0,0,0,5.24,7.67,25.09,25.09,0,0,0,7.72,5.19,24.14,24.14,0,0,0,18.82,0,25,25,0,0,0,7.77-5.19,24.27,24.27,0,0,0,5.24-7.67,23.46,23.46,0,0,0,1.91-9.44,25.12,25.12,0,0,0-1.91-9.67,26.88,26.88,0,0,0-5.14-8.1,25.35,25.35,0,0,0-7.63-5.58,21.35,21.35,0,0,0-9.34-2.1,22.18,22.18,0,0,0-9.53,2.1,26.07,26.07,0,0,0-7.82,5.58,26.71,26.71,0,0,0-5.29,8.1A24.61,24.61,0,0,0,2446.19,1040.16Z" style="fill:#231f20"/><path d="M2523.1,1073.14v-66.62h9.73a70.25,70.25,0,0,1,9.29.62,51.84,51.84,0,0,1,9.15,2,36.48,36.48,0,0,1,8.29,3.87,25.77,25.77,0,0,1,6.72,6.14,29.59,29.59,0,0,1,4.53,8.82,37.92,37.92,0,0,1,1.66,11.77,38.83,38.83,0,0,1-3.24,16.44,25.65,25.65,0,0,1-8.67,10.72,33.56,33.56,0,0,1-6.72,3.53,39.89,39.89,0,0,1-6.67,1.86,45.07,45.07,0,0,1-6.91.71q-3.53.11-7.43.1Zm9.44-9q4.58,0,8.43-.29a26.33,26.33,0,0,0,7.2-1.52,19.54,19.54,0,0,0,10.58-8.29c2.29-3.82,3.43-8.61,3.43-14.4q0-11.15-7.24-17.39t-22.4-6.24Z" style="fill:#231f20"/><path d="M2617.36,1021.29a31.83,31.83,0,0,0-4.14-4.15,9.53,9.53,0,0,0-6.25-1.86,7.91,7.91,0,0,0-8,7.73,8,8,0,0,0,1,4,11.14,11.14,0,0,0,2.91,3.25,28.18,28.18,0,0,0,4.67,2.86q2.76,1.38,6.38,3a41.13,41.13,0,0,1,6.15,3.43,24.64,24.64,0,0,1,4.86,4.29,17.91,17.91,0,0,1,3.19,5.38,18.9,18.9,0,0,1,1.15,6.82,22.23,22.23,0,0,1-1.05,6.81,14.85,14.85,0,0,1-3.48,5.82,17.24,17.24,0,0,1-6.58,4,30,30,0,0,1-10.24,1.52,28.93,28.93,0,0,1-8.15-1,20.59,20.59,0,0,1-6.24-3,17.72,17.72,0,0,1-4.53-4.72,29.3,29.3,0,0,1-3.1-6.24l8.87-4.2a13.87,13.87,0,0,0,5.19,6.49,14.31,14.31,0,0,0,8,2.19q5.15,0,7.77-2.34a8.41,8.41,0,0,0,2.62-6.62,6.3,6.3,0,0,0-.67-2.91,8.94,8.94,0,0,0-1.76-2.33,13.13,13.13,0,0,0-2.39-1.82c-.85-.5-1.66-1-2.43-1.33l-10.77-5.24a26.06,26.06,0,0,1-9.05-7.24,17.39,17.39,0,0,1-3.62-11.16,15.24,15.24,0,0,1,1.62-7,17.28,17.28,0,0,1,4.33-5.48,19.79,19.79,0,0,1,6.25-3.53,22.93,22.93,0,0,1,18.53,1.62,17.48,17.48,0,0,1,7.58,8.58Z" style="fill:#231f20"/></svg>